<?xml version="1.0" encoding="UTF-8" standalone="no"?>
<!DOCTYPE svg PUBLIC "-//W3C//DTD SVG 1.1//EN"
 "http://www.w3.org/Graphics/SVG/1.1/DTD/svg11.dtd">
<!-- Generated by graphviz version 12.2.1 (0)
 -->
<!-- Title: kirin Pages: 1 -->
<svg width="714pt" height="691pt"
 viewBox="0.00 0.00 714.00 691.00" xmlns="http://www.w3.org/2000/svg" xmlns:xlink="http://www.w3.org/1999/xlink">
<g id="graph0" class="graph" transform="scale(1 1) rotate(0) translate(4 687)">
<title>kirin</title>
<polygon fill="white" stroke="none" points="-4,4 -4,-687 710,-687 710,4 -4,4"/>
<text text-anchor="start" x="284.38" y="-661" font-family="Helvetica Neue" font-weight="bold" font-size="20.00">Kirin Hybrid IR</text>
<text text-anchor="start" x="197.75" y="-642.65" font-family="Helvetica Neue" font-size="13.00" fill="#555555">Multi&#45;stage pipeline &#160;· &#160;SSA CFG + petgraph in one IR</text>
<text text-anchor="start" x="351.12" y="-619.95" font-family="Helvetica Neue" font-size="14.00"> </text>
<path fill="#f5f7ff" stroke="none" d="M107.12,-580.75C107.12,-580.75 163.62,-580.75 163.62,-580.75 168.62,-580.75 173.62,-585.75 173.62,-590.75 173.62,-590.75 173.62,-600.75 173.62,-600.75 173.62,-605.75 168.62,-610.75 163.62,-610.75 163.62,-610.75 107.12,-610.75 107.12,-610.75 102.12,-610.75 97.12,-605.75 97.12,-600.75 97.12,-600.75 97.12,-590.75 97.12,-590.75 97.12,-585.75 102.12,-580.75 107.12,-580.75"/>
<path fill="none" stroke="#cccccc" d="M107.12,-580.75C107.12,-580.75 163.62,-580.75 163.62,-580.75 168.62,-580.75 173.62,-585.75 173.62,-590.75 173.62,-590.75 173.62,-600.75 173.62,-600.75 173.62,-605.75 168.62,-610.75 163.62,-610.75 163.62,-610.75 107.12,-610.75 107.12,-610.75 102.12,-610.75 97.12,-605.75 97.12,-600.75 97.12,-600.75 97.12,-590.75 97.12,-590.75 97.12,-585.75 102.12,-580.75 107.12,-580.75"/>
<text text-anchor="start" x="103.12" y="-590.7" font-family="Helvetica Neue" font-size="14.00">Statement</text>
<path fill="#fff3e0" stroke="none" d="M183.62,-580.75C183.62,-580.75 247.62,-580.75 247.62,-580.75 252.62,-580.75 257.62,-585.75 257.62,-590.75 257.62,-590.75 257.62,-600.75 257.62,-600.75 257.62,-605.75 252.62,-610.75 247.62,-610.75 247.62,-610.75 183.62,-610.75 183.62,-610.75 178.62,-610.75 173.62,-605.75 173.62,-600.75 173.62,-600.75 173.62,-590.75 173.62,-590.75 173.62,-585.75 178.62,-580.75 183.62,-580.75"/>
<path fill="none" stroke="#cccccc" d="M183.62,-580.75C183.62,-580.75 247.62,-580.75 247.62,-580.75 252.62,-580.75 257.62,-585.75 257.62,-590.75 257.62,-590.75 257.62,-600.75 257.62,-600.75 257.62,-605.75 252.62,-610.75 247.62,-610.75 247.62,-610.75 183.62,-610.75 183.62,-610.75 178.62,-610.75 173.62,-605.75 173.62,-600.75 173.62,-600.75 173.62,-590.75 173.62,-590.75 173.62,-585.75 178.62,-580.75 183.62,-580.75"/>
<text text-anchor="start" x="179.62" y="-592.45" font-family="Helvetica Neue" font-weight="bold" font-size="14.00">Terminator</text>
<path fill="#b7e1cd" stroke="none" d="M267.62,-580.75C267.62,-580.75 299.38,-580.75 299.38,-580.75 304.38,-580.75 309.38,-585.75 309.38,-590.75 309.38,-590.75 309.38,-600.75 309.38,-600.75 309.38,-605.75 304.38,-610.75 299.38,-610.75 299.38,-610.75 267.62,-610.75 267.62,-610.75 262.62,-610.75 257.62,-605.75 257.62,-600.75 257.62,-600.75 257.62,-590.75 257.62,-590.75 257.62,-585.75 262.62,-580.75 267.62,-580.75"/>
<path fill="none" stroke="#cccccc" d="M267.62,-580.75C267.62,-580.75 299.38,-580.75 299.38,-580.75 304.38,-580.75 309.38,-585.75 309.38,-590.75 309.38,-590.75 309.38,-600.75 309.38,-600.75 309.38,-605.75 304.38,-610.75 299.38,-610.75 299.38,-610.75 267.62,-610.75 267.62,-610.75 262.62,-610.75 257.62,-605.75 257.62,-600.75 257.62,-600.75 257.62,-590.75 257.62,-590.75 257.62,-585.75 262.62,-580.75 267.62,-580.75"/>
<text text-anchor="start" x="263.62" y="-591.08" font-family="Helvetica Neue" font-size="14.00">◆ Port</text>
<path fill="#fce4ec" stroke="none" d="M319.38,-580.75C319.38,-580.75 423.12,-580.75 423.12,-580.75 428.12,-580.75 433.12,-585.75 433.12,-590.75 433.12,-590.75 433.12,-600.75 433.12,-600.75 433.12,-605.75 428.12,-610.75 423.12,-610.75 423.12,-610.75 319.38,-610.75 319.38,-610.75 314.38,-610.75 309.38,-605.75 309.38,-600.75 309.38,-600.75 309.38,-590.75 309.38,-590.75 309.38,-585.75 314.38,-580.75 319.38,-580.75"/>
<path fill="none" stroke="#cccccc" d="M319.38,-580.75C319.38,-580.75 423.12,-580.75 423.12,-580.75 428.12,-580.75 433.12,-585.75 433.12,-590.75 433.12,-590.75 433.12,-600.75 433.12,-600.75 433.12,-605.75 428.12,-610.75 423.12,-610.75 423.12,-610.75 319.38,-610.75 319.38,-610.75 314.38,-610.75 309.38,-605.75 309.38,-600.75 309.38,-600.75 309.38,-590.75 309.38,-590.75 309.38,-585.75 314.38,-580.75 319.38,-580.75"/>
<text text-anchor="start" x="315.38" y="-590.7" font-family="Helvetica Neue" font-size="14.00">Nested (hierarchy)</text>
<text text-anchor="start" x="438.12" y="-592.08" font-family="Helvetica Neue" font-size="14.00" fill="#1565c0">&#45; &#45; → SSA</text>
<text text-anchor="start" x="501.12" y="-592.08" font-family="Helvetica Neue" font-size="14.00"> &#160;&#160;</text>
<text text-anchor="start" x="512.38" y="-592.08" font-family="Helvetica Neue" font-size="14.00" fill="#137333">━→ data&#45;flow</text>
<g id="clust1" class="cluster">
<title>cluster_pipeline</title>
<path fill="#fafafa" stroke="#bbbbbb" stroke-width="1.5" d="M20,-8C20,-8 686,-8 686,-8 692,-8 698,-14 698,-20 698,-20 698,-556.75 698,-556.75 698,-562.75 692,-568.75 686,-568.75 686,-568.75 20,-568.75 20,-568.75 14,-568.75 8,-562.75 8,-556.75 8,-556.75 8,-20 8,-20 8,-14 14,-8 20,-8"/>
<text text-anchor="start" x="328.62" y="-553.4" font-family="Helvetica Neue" font-weight="bold" font-size="13.00">Pipeline</text>
</g>
<g id="clust2" class="cluster">
<title>cluster_source</title>
<path fill="#e8f0fe" stroke="#4285f4" stroke-width="1.5" d="M28,-16C28,-16 408,-16 408,-16 414,-16 420,-22 420,-28 420,-28 420,-525 420,-525 420,-531 414,-537 408,-537 408,-537 28,-537 28,-537 22,-537 16,-531 16,-525 16,-525 16,-28 16,-28 16,-22 22,-16 28,-16"/>
<text text-anchor="start" x="145.62" y="-521.65" font-family="Helvetica Neue" font-weight="bold" font-size="13.00">Stage @source</text>
<text text-anchor="start" x="238.62" y="-521.65" font-family="Helvetica Neue" font-size="13.00"> &#160;</text>
<text text-anchor="start" x="246.12" y="-521.65" font-family="Helvetica Neue" font-size="10.00" fill="#666666">SSA CFG</text>
</g>
<g id="clust3" class="cluster">
<title>cluster_fn_abs</title>
<path fill="#d2e3fc" stroke="#1a73e8" stroke-width="1.5" d="M36,-24C36,-24 400,-24 400,-24 406,-24 412,-30 412,-36 412,-36 412,-493.25 412,-493.25 412,-499.25 406,-505.25 400,-505.25 400,-505.25 36,-505.25 36,-505.25 30,-505.25 24,-499.25 24,-493.25 24,-493.25 24,-36 24,-36 24,-30 30,-24 36,-24"/>
<text text-anchor="start" x="167.38" y="-490.85" font-family="Helvetica Neue" font-weight="bold" font-size="12.00">fn @abs</text>
<text text-anchor="start" x="211.62" y="-490.85" font-family="Helvetica Neue" font-size="12.00">(i64) → i64</text>
</g>
<g id="clust4" class="cluster">
<title>cluster_region</title>
<polygon fill="#ecf0f8" stroke="#7baaf7" stroke-width="1.5" stroke-dasharray="5,2" points="32,-32 32,-474.25 404,-474.25 404,-32 32,-32"/>
<text text-anchor="start" x="202.25" y="-461.75" font-family="Helvetica Neue" font-style="italic" font-size="10.00">Region</text>
</g>
<g id="clust5" class="cluster">
<title>cluster_entry</title>
<path fill="white" stroke="#1a73e8" stroke-width="1.5" d="M52,-40C52,-40 384,-40 384,-40 390,-40 396,-46 396,-52 396,-52 396,-434.25 396,-434.25 396,-440.25 390,-446.25 384,-446.25 384,-446.25 52,-446.25 52,-446.25 46,-446.25 40,-440.25 40,-434.25 40,-434.25 40,-52 40,-52 40,-46 46,-40 52,-40"/>
<text text-anchor="start" x="179.38" y="-432.8" font-family="Helvetica Neue" font-weight="bold" font-size="11.00">^entry</text>
<text text-anchor="start" x="213.12" y="-432.8" font-family="Helvetica Neue" font-size="11.00">(%x: i64)</text>
</g>
<g id="clust6" class="cluster">
<title>cluster_if</title>
<path fill="#fce4ec" stroke="#c62828" stroke-width="1.5" d="M60,-48C60,-48 150,-48 150,-48 156,-48 162,-54 162,-60 162,-60 162,-404 162,-404 162,-410 156,-416 150,-416 150,-416 60,-416 60,-416 54,-416 48,-410 48,-404 48,-404 48,-60 48,-60 48,-54 54,-48 60,-48"/>
<text text-anchor="start" x="62.62" y="-403.5" font-family="Helvetica Neue" font-weight="bold" font-size="10.00">%result = if %neg</text>
</g>
<g id="clust7" class="cluster">
<title>cluster_then</title>
<path fill="white" stroke="#e57373" stroke-width="1.5" d="M68,-56C68,-56 142,-56 142,-56 148,-56 154,-62 154,-68 154,-68 154,-191 154,-191 154,-197 148,-203 142,-203 142,-203 68,-203 68,-203 62,-203 56,-197 56,-191 56,-191 56,-68 56,-68 56,-62 62,-56 68,-56"/>
<text text-anchor="start" x="92.62" y="-189.5" font-family="Helvetica Neue" font-size="10.00">^then</text>
</g>
<g id="clust8" class="cluster">
<title>cluster_else</title>
<path fill="white" stroke="#e57373" stroke-width="1.5" d="M92,-315C92,-315 142,-315 142,-315 148,-315 154,-321 154,-327 154,-327 154,-376 154,-376 154,-382 148,-388 142,-388 142,-388 92,-388 92,-388 86,-388 80,-382 80,-376 80,-376 80,-327 80,-327 80,-321 86,-315 92,-315"/>
<text text-anchor="start" x="105" y="-374.5" font-family="Helvetica Neue" font-size="10.00">^else</text>
</g>
<g id="clust9" class="cluster">
<title>cluster_circuit</title>
<path fill="#e6f4ea" stroke="#34a853" stroke-width="1.5" d="M440,-40C440,-40 678,-40 678,-40 684,-40 690,-46 690,-52 690,-52 690,-438.25 690,-438.25 690,-444.25 684,-450.25 678,-450.25 678,-450.25 440,-450.25 440,-450.25 434,-450.25 428,-444.25 428,-438.25 428,-438.25 428,-52 428,-52 428,-46 434,-40 440,-40"/>
<text text-anchor="start" x="493" y="-434.9" font-family="Helvetica Neue" font-weight="bold" font-size="13.00">Stage @circuit</text>
<text text-anchor="start" x="581.5" y="-434.9" font-family="Helvetica Neue" font-size="13.00"> &#160;</text>
<text text-anchor="start" x="589" y="-434.9" font-family="Helvetica Neue" font-size="10.00" fill="#666666">DiGraph</text>
</g>
<g id="clust10" class="cluster">
<title>cluster_fn_bell</title>
<path fill="#ceead6" stroke="#137333" stroke-width="1.5" d="M448,-48C448,-48 670,-48 670,-48 676,-48 682,-54 682,-60 682,-60 682,-406.5 682,-406.5 682,-412.5 676,-418.5 670,-418.5 670,-418.5 448,-418.5 448,-418.5 442,-418.5 436,-412.5 436,-406.5 436,-406.5 436,-60 436,-60 436,-54 442,-48 448,-48"/>
<text text-anchor="start" x="443.88" y="-404.1" font-family="Helvetica Neue" font-weight="bold" font-size="12.00">fn @bell_pair</text>
<text text-anchor="start" x="515.12" y="-404.1" font-family="Helvetica Neue" font-size="12.00">(Qubit, Qubit) → (Qubit, Qubit)</text>
</g>
<g id="clust11" class="cluster">
<title>cluster_dg</title>
<polygon fill="#dff0e5" stroke="#5bb974" stroke-width="1.5" stroke-dasharray="5,2" points="454,-56 454,-387.5 663,-387.5 663,-56 454,-56"/>
<text text-anchor="start" x="527.38" y="-375" font-family="Helvetica Neue" font-style="italic" font-size="10.00">DiGraph ^dg0</text>
</g>
<!-- s0 -->
<g id="node1" class="node">
<title>s0</title>
<path fill="#f5f7ff" stroke="black" d="M282.62,-323.5C282.62,-323.5 371.38,-323.5 371.38,-323.5 377.38,-323.5 383.38,-329.5 383.38,-335.5 383.38,-335.5 383.38,-347.5 383.38,-347.5 383.38,-353.5 377.38,-359.5 371.38,-359.5 371.38,-359.5 282.62,-359.5 282.62,-359.5 276.62,-359.5 270.62,-353.5 270.62,-347.5 270.62,-347.5 270.62,-335.5 270.62,-335.5 270.62,-329.5 276.62,-323.5 282.62,-323.5"/>
<text text-anchor="middle" x="327" y="-337.8" font-family="Helvetica Neue" font-size="11.00">%zero = constant 0</text>
</g>
<!-- s1 -->
<g id="node2" class="node">
<title>s1</title>
<path fill="#f5f7ff" stroke="black" d="M277.75,-240C277.75,-240 376.25,-240 376.25,-240 382.25,-240 388.25,-246 388.25,-252 388.25,-252 388.25,-264 388.25,-264 388.25,-270 382.25,-276 376.25,-276 376.25,-276 277.75,-276 277.75,-276 271.75,-276 265.75,-270 265.75,-264 265.75,-264 265.75,-252 265.75,-252 265.75,-246 271.75,-240 277.75,-240"/>
<text text-anchor="middle" x="327" y="-254.3" font-family="Helvetica Neue" font-size="11.00">%neg = lt %x, %zero</text>
</g>
<!-- s0&#45;&gt;s1 -->
<!-- s0&#45;&gt;s1 -->
<g id="edge5" class="edge">
<title>s0&#45;&gt;s1</title>
<path fill="none" stroke="#1565c0" stroke-dasharray="5,2" d="M330.37,-323.05C331.65,-314.47 332.66,-303.96 332,-294.5 331.84,-292.26 331.63,-289.96 331.38,-287.64"/>
<polygon fill="#1565c0" stroke="#1565c0" points="334.86,-287.26 330.12,-277.78 327.92,-288.15 334.86,-287.26"/>
<text text-anchor="start" x="332.21" y="-297.4" font-family="Helvetica Neue" font-size="8.00" fill="#1565c0">%zero</text>
</g>
<!-- t0 -->
<g id="node3" class="node">
<title>t0</title>
<path fill="#f5f7ff" stroke="black" d="M76,-138.5C76,-138.5 134,-138.5 134,-138.5 140,-138.5 146,-144.5 146,-150.5 146,-150.5 146,-162.5 146,-162.5 146,-168.5 140,-174.5 134,-174.5 134,-174.5 76,-174.5 76,-174.5 70,-174.5 64,-168.5 64,-162.5 64,-162.5 64,-150.5 64,-150.5 64,-144.5 70,-138.5 76,-138.5"/>
<text text-anchor="middle" x="105" y="-152.8" font-family="Helvetica Neue" font-size="11.00">%r = neg %x</text>
</g>
<!-- s1&#45;&gt;t0 -->
<!-- t1 -->
<g id="node4" class="node">
<title>t1</title>
<path fill="#fff3e0" stroke="black" stroke-width="2" d="M88.75,-64.5C88.75,-64.5 121.25,-64.5 121.25,-64.5 127.25,-64.5 133.25,-70.5 133.25,-76.5 133.25,-76.5 133.25,-88.5 133.25,-88.5 133.25,-94.5 127.25,-100.5 121.25,-100.5 121.25,-100.5 88.75,-100.5 88.75,-100.5 82.75,-100.5 76.75,-94.5 76.75,-88.5 76.75,-88.5 76.75,-76.5 76.75,-76.5 76.75,-70.5 82.75,-64.5 88.75,-64.5"/>
<text text-anchor="middle" x="105" y="-78.8" font-family="Helvetica Neue" font-size="11.00">yield %r</text>
</g>
<!-- t0&#45;&gt;t1 -->
<!-- e0 -->
<g id="node5" class="node">
<title>e0</title>
<path fill="#fff3e0" stroke="black" stroke-width="2" d="M99.62,-323.5C99.62,-323.5 134.38,-323.5 134.38,-323.5 140.38,-323.5 146.38,-329.5 146.38,-335.5 146.38,-335.5 146.38,-347.5 146.38,-347.5 146.38,-353.5 140.38,-359.5 134.38,-359.5 134.38,-359.5 99.62,-359.5 99.62,-359.5 93.62,-359.5 87.62,-353.5 87.62,-347.5 87.62,-347.5 87.62,-335.5 87.62,-335.5 87.62,-329.5 93.62,-323.5 99.62,-323.5"/>
<text text-anchor="middle" x="117" y="-337.8" font-family="Helvetica Neue" font-size="11.00">yield %x</text>
</g>
<!-- s2 -->
<g id="node6" class="node">
<title>s2</title>
<path fill="#fff3e0" stroke="black" stroke-width="2" d="M181.62,-240C181.62,-240 228.38,-240 228.38,-240 234.38,-240 240.38,-246 240.38,-252 240.38,-252 240.38,-264 240.38,-264 240.38,-270 234.38,-276 228.38,-276 228.38,-276 181.62,-276 181.62,-276 175.62,-276 169.62,-270 169.62,-264 169.62,-264 169.62,-252 169.62,-252 169.62,-246 175.62,-240 181.62,-240"/>
<text text-anchor="middle" x="205" y="-254.3" font-family="Helvetica Neue" font-size="11.00">ret %result</text>
</g>
<!-- e0&#45;&gt;s2 -->
<!-- port_q0 -->
<g id="node7" class="node">
<title>port_q0</title>
<polygon fill="#b7e1cd" stroke="black" points="511,-359.5 475.74,-341.5 511,-323.5 546.26,-341.5 511,-359.5"/>
<text text-anchor="middle" x="511" y="-337.8" font-family="Helvetica Neue" font-size="11.00">%q0</text>
</g>
<!-- g_h -->
<g id="node9" class="node">
<title>g_h</title>
<path fill="#f0fff4" stroke="black" d="M474.5,-240C474.5,-240 547.5,-240 547.5,-240 553.5,-240 559.5,-246 559.5,-252 559.5,-252 559.5,-264 559.5,-264 559.5,-270 553.5,-276 547.5,-276 547.5,-276 474.5,-276 474.5,-276 468.5,-276 462.5,-270 462.5,-264 462.5,-264 462.5,-252 462.5,-252 462.5,-246 468.5,-240 474.5,-240"/>
<text text-anchor="middle" x="511" y="-254.3" font-family="Helvetica Neue" font-size="11.00">%q0_h = h %q0</text>
</g>
<!-- port_q0&#45;&gt;g_h -->
<g id="edge6" class="edge">
<title>port_q0&#45;&gt;g_h</title>
<path fill="none" stroke="#137333" stroke-width="2" d="M511,-323.22C511,-313.28 511,-300.51 511,-288.98"/>
<polygon fill="#137333" stroke="#137333" stroke-width="2" points="514.5,-289.29 511,-279.29 507.5,-289.29 514.5,-289.29"/>
</g>
<!-- port_q1 -->
<g id="node8" class="node">
<title>port_q1</title>
<polygon fill="#b7e1cd" stroke="black" points="620,-276 584.74,-258 620,-240 655.26,-258 620,-276"/>
<text text-anchor="middle" x="620" y="-254.3" font-family="Helvetica Neue" font-size="11.00">%q1</text>
</g>
<!-- g_cx -->
<g id="node10" class="node">
<title>g_cx</title>
<path fill="#f0fff4" stroke="black" d="M480.62,-138.5C480.62,-138.5 635.38,-138.5 635.38,-138.5 641.38,-138.5 647.38,-144.5 647.38,-150.5 647.38,-150.5 647.38,-162.5 647.38,-162.5 647.38,-168.5 641.38,-174.5 635.38,-174.5 635.38,-174.5 480.62,-174.5 480.62,-174.5 474.62,-174.5 468.62,-168.5 468.62,-162.5 468.62,-162.5 468.62,-150.5 468.62,-150.5 468.62,-144.5 474.62,-138.5 480.62,-138.5"/>
<text text-anchor="middle" x="558" y="-152.8" font-family="Helvetica Neue" font-size="11.00">%q0&#39;, %q1&#39; = cnot %q0_h, %q1</text>
</g>
<!-- port_q1&#45;&gt;g_cx -->
<g id="edge7" class="edge">
<title>port_q1&#45;&gt;g_cx</title>
<path fill="none" stroke="#137333" stroke-width="2" d="M611.89,-243.99C602.72,-229.27 587.49,-204.83 575.56,-185.69"/>
<polygon fill="#137333" stroke="#137333" stroke-width="2" points="578.68,-184.07 570.42,-177.43 572.74,-187.77 578.68,-184.07"/>
</g>
<!-- g_h&#45;&gt;g_cx -->
<g id="edge8" class="edge">
<title>g_h&#45;&gt;g_cx</title>
<path fill="none" stroke="#137333" stroke-width="2" d="M519.19,-239.67C526.09,-225.06 536.1,-203.85 544.23,-186.64"/>
<polygon fill="#137333" stroke="#137333" stroke-width="2" points="547.35,-188.24 548.46,-177.7 541.02,-185.25 547.35,-188.24"/>
<text text-anchor="start" x="531.69" y="-213.9" font-family="Helvetica Neue" font-size="8.00" fill="#137333">%q0_h</text>
</g>
<!-- g_y -->
<g id="node11" class="node">
<title>g_y</title>
<path fill="#fff8e1" stroke="black" stroke-width="2" d="M519.25,-64.5C519.25,-64.5 596.75,-64.5 596.75,-64.5 602.75,-64.5 608.75,-70.5 608.75,-76.5 608.75,-76.5 608.75,-88.5 608.75,-88.5 608.75,-94.5 602.75,-100.5 596.75,-100.5 596.75,-100.5 519.25,-100.5 519.25,-100.5 513.25,-100.5 507.25,-94.5 507.25,-88.5 507.25,-88.5 507.25,-76.5 507.25,-76.5 507.25,-70.5 513.25,-64.5 519.25,-64.5"/>
<text text-anchor="middle" x="558" y="-78.8" font-family="Helvetica Neue" font-size="11.00">yield %q0&#39;, %q1&#39;</text>
</g>
<!-- g_cx&#45;&gt;g_y -->
<g id="edge9" class="edge">
<title>g_cx&#45;&gt;g_y</title>
<path fill="none" stroke="#137333" stroke-width="1.5" stroke-dasharray="5,2" d="M558,-138.07C558,-130.47 558,-121.34 558,-112.74"/>
<polygon fill="#137333" stroke="#137333" stroke-width="1.5" points="561.5,-113.04 558,-103.04 554.5,-113.04 561.5,-113.04"/>
</g>
</g>
</svg>
